ffmpeg started on 2026-04-01 at 11:09:55
Report written to "D:\Convert\FFMetrics\reports\psnr_report-6.txt"
Log level: 32
Command line:
ffmpeg -hide_banner -nostdin -r 24000/1001 -i "F:\\Convert\\files\\[DC] Make Heroine ga Oosugiru - 07_Telegram_HEVC(264).mkv" -r 24000/1001 -i "F:\\Convert\\files\\[DC] Make Heroine ga Oosugiru - 07_Telegram.mp4" -lavfi "[0:v]settb=AVTB,setpts=PTS-STARTPTS,format=pix_fmts=yuv420p10le,fps=24000/1001,scale=1920:1080:flags=lanczos:param0=3:out_range=limited:out_color_matrix=bt709:out_chroma_loc=left,setsar=1/1,setdar=(1920/1080)*(1/1),colorspace=format=yuv420p10:range=tv:primaries=bt709:trc=bt709:space=bt709:fast=0[main];[1:v]settb=AVTB,setpts=PTS-STARTPTS,format=pix_fmts=yuv420p,fps=24000/1001,scale=1920:1080:flags=lanczos:param0=3:out_range=limited:out_color_matrix=bt709:out_chroma_loc=left,setsar=1/1,setdar=(1920/1080)*(1/1),colorspace=format=yuv420p:range=tv:primaries=bt709:trc=bt709:space=bt709:fast=0[ref];[main][ref]psnr=eof_action=endall:stats_file='D\\:/Convert/FFMetrics/logs/psnr_logfile-6.txt'" -f null -
Input #0, matroska,webm, from 'F:\Convert\files\[DC] Make Heroine ga Oosugiru - 07_Telegram_HEVC(264).mkv':
  Metadata:
    COMPATIBLE_BRANDS: isomiso2avc1mp41
    MAJOR_BRAND     : isom
    MINOR_VERSION   : 512
    ENCODER         : Lavf61.7.100
  Duration: 00:24:06.79, start: -0.021000, bitrate: 930 kb/s
  Stream #0:0: Video: hevc (Main 10), yuv420p10le(tv, bt709, progressive), 1920x1080 [SAR 1:1 DAR 16:9], 23.98 fps, 23.98 tbr, 1k tbn (default)
      Metadata:
        HANDLER_NAME    : VideoHandler
        VENDOR_ID       : [0][0][0][0]
        ENCODER         : Lavc61.19.100 libx265
        BPS             : 733444
        DURATION        : 00:24:06.569708333
        NUMBER_OF_FRAMES: 34683
        NUMBER_OF_BYTES : 132622303
        _STATISTICS_WRITING_APP: mkvpropedit v94.0 ('Initiate') 64-bit
        _STATISTICS_WRITING_DATE_UTC: 2026-03-30 10:58:48
        _STATISTICS_TAGS: BPS DURATION NUMBER_OF_FRAMES NUMBER_OF_BYTES
  Stream #0:1: Audio: aac (LC), 48000 Hz, stereo, fltp (default)
      Metadata:
        HANDLER_NAME    : SoundHandler
        VENDOR_ID       : [0][0][0][0]
        ENCODER         : Lavc61.19.100 aac
        BPS             : 193194
        DURATION        : 00:24:06.784000000
        NUMBER_OF_FRAMES: 67819
        NUMBER_OF_BYTES : 34938755
        _STATISTICS_WRITING_APP: mkvpropedit v94.0 ('Initiate') 64-bit
        _STATISTICS_WRITING_DATE_UTC: 2026-03-30 10:58:48
        _STATISTICS_TAGS: BPS DURATION NUMBER_OF_FRAMES NUMBER_OF_BYTES
Input #1, mov,mp4,m4a,3gp,3g2,mj2, from 'F:\Convert\files\[DC] Make Heroine ga Oosugiru - 07_Telegram.mp4':
  Metadata:
    major_brand     : isom
    minor_version   : 512
    compatible_brands: isomiso2avc1mp41
    encoder         : Lavf60.16.100
  Duration: 00:24:06.74, start: 0.000000, bitrate: 3764 kb/s
  Stream #1:0[0x1](und): Video: h264 (High) (avc1 / 0x31637661), yuv420p(tv, bt709, progressive), 1920x1080 [SAR 1:1 DAR 16:9], 3616 kb/s, 23.98 fps, 23.98 tbr, 24k tbn (default)
      Metadata:
        handler_name    : VideoHandler
        vendor_id       : [0][0][0][0]
        encoder         : Lavc60.31.102 h264_qsv
  Stream #1:1[0x2](und): Audio: aac (HE-AACv2) (mp4a / 0x6134706D), 48000 Hz, stereo, fltp, 144 kb/s (default)
      Metadata:
        handler_name    : SoundHandler
        vendor_id       : [0][0][0][0]
Stream mapping:
  Stream #0:0 (hevc) -> settb:default
  Stream #1:0 (h264) -> settb:default
  psnr:default -> Stream #0:0 (wrapped_avframe)
  Stream #0:1 -> #0:1 (aac (native) -> pcm_s16le (native))
Output #0, null, to 'pipe:':
  Metadata:
    COMPATIBLE_BRANDS: isomiso2avc1mp41
    MAJOR_BRAND     : isom
    MINOR_VERSION   : 512
    encoder         : Lavf61.7.100
  Stream #0:0: Video: wrapped_avframe, yuv420p10le(tv, bt709, progressive), 1920x1080 [SAR 1:1 DAR 16:9], q=2-31, 200 kb/s, 23.98 fps, 23.98 tbn
      Metadata:
        encoder         : Lavc61.19.100 wrapped_avframe
  Stream #0:1: Audio: pcm_s16le, 48000 Hz, stereo, s16, 1536 kb/s (default)
      Metadata:
        HANDLER_NAME    : SoundHandler
        VENDOR_ID       : [0][0][0][0]
        _STATISTICS_TAGS: BPS DURATION NUMBER_OF_FRAMES NUMBER_OF_BYTES
        BPS             : 193194
        DURATION        : 00:24:06.784000000
        NUMBER_OF_FRAMES: 67819
        NUMBER_OF_BYTES : 34938755
        _STATISTICS_WRITING_APP: mkvpropedit v94.0 ('Initiate') 64-bit
        _STATISTICS_WRITING_DATE_UTC: 2026-03-30 10:58:48
        encoder         : Lavc61.19.100 pcm_s16le
frame=  127 fps=0.0 q=-0.0 size=N/A time=00:00:05.29 bitrate=N/A speed=10.3x    frame=  307 fps=298 q=-0.0 size=N/A time=00:00:12.80 bitrate=N/A speed=12.4x    frame=  496 fps=322 q=-0.0 size=N/A time=00:00:20.68 bitrate=N/A speed=13.4x    frame=  678 fps=328 q=-0.0 size=N/A time=00:00:28.27 bitrate=N/A speed=13.7x    frame=  875 fps=339 q=-0.0 size=N/A time=00:00:36.49 bitrate=N/A speed=14.2x    frame=  994 fps=322 q=-0.0 size=N/A time=00:00:41.45 bitrate=N/A speed=13.4x    frame= 1152 fps=320 q=-0.0 size=N/A time=00:00:48.04 bitrate=N/A speed=13.3x    frame= 1310 fps=317 q=-0.0 size=N/A time=00:00:54.63 bitrate=N/A speed=13.2x    frame= 1464 fps=316 q=-0.0 size=N/A time=00:01:01.06 bitrate=N/A speed=13.2x    frame= 1598 fps=310 q=-0.0 size=N/A time=00:01:06.64 bitrate=N/A speed=12.9x    frame= 1748 fps=309 q=-0.0 size=N/A time=00:01:12.90 bitrate=N/A speed=12.9x    frame= 1905 fps=308 q=-0.0 size=N/A time=00:01:19.45 bitrate=N/A speed=12.8x    frame= 2058 fps=307 q=-0.0 size=N/A time=00:01:25.83 bitrate=N/A speed=12.8x    frame= 2178 fps=302 q=-0.0 size=N/A time=00:01:30.84 bitrate=N/A speed=12.6x    frame= 2335 fps=302 q=-0.0 size=N/A time=00:01:37.38 bitrate=N/A speed=12.6x    frame= 2472 fps=300 q=-0.0 size=N/A time=00:01:43.10 bitrate=N/A speed=12.5x    frame= 2612 fps=298 q=-0.0 size=N/A time=00:01:48.94 bitrate=N/A speed=12.4x    frame= 2787 fps=300 q=-0.0 size=N/A time=00:01:56.24 bitrate=N/A speed=12.5x    frame= 2960 fps=302 q=-0.0 size=N/A time=00:02:03.45 bitrate=N/A speed=12.6x    frame= 3156 fps=306 q=-0.0 size=N/A time=00:02:11.63 bitrate=N/A speed=12.8x    frame= 3346 fps=309 q=-0.0 size=N/A time=00:02:19.55 bitrate=N/A speed=12.9x    frame= 3533 fps=312 q=-0.0 size=N/A time=00:02:27.35 bitrate=N/A speed=  13x    frame= 3723 fps=314 q=-0.0 size=N/A time=00:02:35.28 bitrate=N/A speed=13.1x    frame= 3912 fps=316 q=-0.0 size=N/A time=00:02:43.16 bitrate=N/A speed=13.2x    frame= 4100 fps=318 q=-0.0 size=N/A time=00:02:51.00 bitrate=N/A speed=13.3x    frame= 4290 fps=320 q=-0.0 size=N/A time=00:02:58.92 bitrate=N/A speed=13.4x    frame= 4479 fps=322 q=-0.0 size=N/A time=00:03:06.81 bitrate=N/A speed=13.4x    frame= 4675 fps=324 q=-0.0 size=N/A time=00:03:14.98 bitrate=N/A speed=13.5x    frame= 4861 fps=325 q=-0.0 size=N/A time=00:03:22.74 bitrate=N/A speed=13.6x    frame= 5050 fps=327 q=-0.0 size=N/A time=00:03:30.62 bitrate=N/A speed=13.6x    frame= 5244 fps=328 q=-0.0 size=N/A time=00:03:38.71 bitrate=N/A speed=13.7x    frame= 5431 fps=329 q=-0.0 size=N/A time=00:03:46.51 bitrate=N/A speed=13.7x    frame= 5613 fps=330 q=-0.0 size=N/A time=00:03:54.10 bitrate=N/A speed=13.8x    frame= 5803 fps=331 q=-0.0 size=N/A time=00:04:02.03 bitrate=N/A speed=13.8x    frame= 5991 fps=332 q=-0.0 size=N/A time=00:04:09.87 bitrate=N/A speed=13.8x    frame= 6178 fps=333 q=-0.0 size=N/A time=00:04:17.67 bitrate=N/A speed=13.9x    frame= 6370 fps=334 q=-0.0 size=N/A time=00:04:25.68 bitrate=N/A speed=13.9x    frame= 6559 fps=335 q=-0.0 size=N/A time=00:04:33.56 bitrate=N/A speed=  14x    frame= 6753 fps=336 q=-0.0 size=N/A time=00:04:41.65 bitrate=N/A speed=  14x    frame= 6947 fps=337 q=-0.0 size=N/A time=00:04:49.74 bitrate=N/A speed=14.1x    frame= 7124 fps=337 q=-0.0 size=N/A time=00:04:57.13 bitrate=N/A speed=14.1x    frame= 7315 fps=338 q=-0.0 size=N/A time=00:05:05.09 bitrate=N/A speed=14.1x    frame= 7495 fps=338 q=-0.0 size=N/A time=00:05:12.60 bitrate=N/A speed=14.1x    frame= 7677 fps=338 q=-0.0 size=N/A time=00:05:20.19 bitrate=N/A speed=14.1x    frame= 7858 fps=339 q=-0.0 size=N/A time=00:05:27.74 bitrate=N/A speed=14.1x    frame= 8043 fps=339 q=-0.0 size=N/A time=00:05:35.46 bitrate=N/A speed=14.1x    frame= 8225 fps=340 q=-0.0 size=N/A time=00:05:43.05 bitrate=N/A speed=14.2x    frame= 8418 fps=340 q=-0.0 size=N/A time=00:05:51.10 bitrate=N/A speed=14.2x    frame= 8606 fps=341 q=-0.0 size=N/A time=00:05:58.94 bitrate=N/A speed=14.2x    frame= 8796 fps=341 q=-0.0 size=N/A time=00:06:06.86 bitrate=N/A speed=14.2x    frame= 8977 fps=341 q=-0.0 size=N/A time=00:06:14.41 bitrate=N/A speed=14.2x    frame= 9167 fps=342 q=-0.0 size=N/A time=00:06:22.34 bitrate=N/A speed=14.3x    frame= 9356 fps=342 q=-0.0 size=N/A time=00:06:30.22 bitrate=N/A speed=14.3x    frame= 9547 fps=343 q=-0.0 size=N/A time=00:06:38.18 bitrate=N/A speed=14.3x    frame= 9739 fps=344 q=-0.0 size=N/A time=00:06:46.19 bitrate=N/A speed=14.3x    frame= 9928 fps=344 q=-0.0 size=N/A time=00:06:54.08 bitrate=N/A speed=14.3x    frame=10109 fps=344 q=-0.0 size=N/A time=00:07:01.62 bitrate=N/A speed=14.3x    frame=10291 fps=344 q=-0.0 size=N/A time=00:07:09.22 bitrate=N/A speed=14.4x    frame=10481 fps=344 q=-0.0 size=N/A time=00:07:17.14 bitrate=N/A speed=14.4x    frame=10668 fps=345 q=-0.0 size=N/A time=00:07:24.94 bitrate=N/A speed=14.4x    frame=10856 fps=345 q=-0.0 size=N/A time=00:07:32.78 bitrate=N/A speed=14.4x    frame=11043 fps=346 q=-0.0 size=N/A time=00:07:40.58 bitrate=N/A speed=14.4x    frame=11234 fps=346 q=-0.0 size=N/A time=00:07:48.55 bitrate=N/A speed=14.4x    frame=11417 fps=346 q=-0.0 size=N/A time=00:07:56.18 bitrate=N/A speed=14.4x    frame=11607 fps=346 q=-0.0 size=N/A time=00:08:04.10 bitrate=N/A speed=14.4x    frame=11793 fps=347 q=-0.0 size=N/A time=00:08:11.86 bitrate=N/A speed=14.5x    frame=11982 fps=347 q=-0.0 size=N/A time=00:08:19.74 bitrate=N/A speed=14.5x    frame=12171 fps=347 q=-0.0 size=N/A time=00:08:27.63 bitrate=N/A speed=14.5x    frame=12357 fps=347 q=-0.0 size=N/A time=00:08:35.38 bitrate=N/A speed=14.5x    frame=12540 fps=347 q=-0.0 size=N/A time=00:08:43.02 bitrate=N/A speed=14.5x    frame=12731 fps=348 q=-0.0 size=N/A time=00:08:50.98 bitrate=N/A speed=14.5x    frame=12926 fps=348 q=-0.0 size=N/A time=00:08:59.12 bitrate=N/A speed=14.5x    frame=13111 fps=348 q=-0.0 size=N/A time=00:09:06.83 bitrate=N/A speed=14.5x    frame=13299 fps=348 q=-0.0 size=N/A time=00:09:14.67 bitrate=N/A speed=14.5x    frame=13479 fps=348 q=-0.0 size=N/A time=00:09:22.18 bitrate=N/A speed=14.5x    frame=13667 fps=349 q=-0.0 size=N/A time=00:09:30.02 bitrate=N/A speed=14.5x    frame=13861 fps=349 q=-0.0 size=N/A time=00:09:38.11 bitrate=N/A speed=14.6x    frame=14044 fps=349 q=-0.0 size=N/A time=00:09:45.75 bitrate=N/A speed=14.6x    frame=14226 fps=349 q=-0.0 size=N/A time=00:09:53.34 bitrate=N/A speed=14.6x    frame=14409 fps=349 q=-0.0 size=N/A time=00:10:00.97 bitrate=N/A speed=14.6x    frame=14597 fps=349 q=-0.0 size=N/A time=00:10:08.81 bitrate=N/A speed=14.6x    frame=14786 fps=350 q=-0.0 size=N/A time=00:10:16.69 bitrate=N/A speed=14.6x    frame=14972 fps=350 q=-0.0 size=N/A time=00:10:24.45 bitrate=N/A speed=14.6x    frame=15137 fps=349 q=-0.0 size=N/A time=00:10:31.33 bitrate=N/A speed=14.6x    frame=15308 fps=349 q=-0.0 size=N/A time=00:10:38.47 bitrate=N/A speed=14.6x    frame=15496 fps=349 q=-0.0 size=N/A time=00:10:46.31 bitrate=N/A speed=14.6x    frame=15685 fps=350 q=-0.0 size=N/A time=00:10:54.19 bitrate=N/A speed=14.6x    frame=15872 fps=350 q=-0.0 size=N/A time=00:11:01.99 bitrate=N/A speed=14.6x    frame=16056 fps=350 q=-0.0 size=N/A time=00:11:09.66 bitrate=N/A speed=14.6x    frame=16254 fps=350 q=-0.0 size=N/A time=00:11:17.92 bitrate=N/A speed=14.6x    frame=16441 fps=350 q=-0.0 size=N/A time=00:11:25.72 bitrate=N/A speed=14.6x    frame=16625 fps=350 q=-0.0 size=N/A time=00:11:33.40 bitrate=N/A speed=14.6x    frame=16811 fps=350 q=-0.0 size=N/A time=00:11:41.15 bitrate=N/A speed=14.6x    frame=17004 fps=351 q=-0.0 size=N/A time=00:11:49.20 bitrate=N/A speed=14.6x    frame=17195 fps=351 q=-0.0 size=N/A time=00:11:57.17 bitrate=N/A speed=14.6x    frame=17371 fps=351 q=-0.0 size=N/A time=00:12:04.51 bitrate=N/A speed=14.6x    frame=17558 fps=351 q=-0.0 size=N/A time=00:12:12.31 bitrate=N/A speed=14.6x    frame=17745 fps=351 q=-0.0 size=N/A time=00:12:20.11 bitrate=N/A speed=14.6x    frame=17939 fps=351 q=-0.0 size=N/A time=00:12:28.20 bitrate=N/A speed=14.6x    frame=18123 fps=351 q=-0.0 size=N/A time=00:12:35.88 bitrate=N/A speed=14.7x    frame=18304 fps=351 q=-0.0 size=N/A time=00:12:43.42 bitrate=N/A speed=14.7x    frame=18480 fps=351 q=-0.0 size=N/A time=00:12:50.77 bitrate=N/A speed=14.6x    frame=18678 fps=351 q=-0.0 size=N/A time=00:12:59.02 bitrate=N/A speed=14.7x    frame=18865 fps=352 q=-0.0 size=N/A time=00:13:06.82 bitrate=N/A speed=14.7x    frame=19051 fps=352 q=-0.0 size=N/A time=00:13:14.58 bitrate=N/A speed=14.7x    frame=19245 fps=352 q=-0.0 size=N/A time=00:13:22.67 bitrate=N/A speed=14.7x    frame=19439 fps=352 q=-0.0 size=N/A time=00:13:30.76 bitrate=N/A speed=14.7x    frame=19626 fps=352 q=-0.0 size=N/A time=00:13:38.56 bitrate=N/A speed=14.7x    frame=19814 fps=352 q=-0.0 size=N/A time=00:13:46.40 bitrate=N/A speed=14.7x    frame=20009 fps=353 q=-0.0 size=N/A time=00:13:54.54 bitrate=N/A speed=14.7x    frame=20200 fps=353 q=-0.0 size=N/A time=00:14:02.50 bitrate=N/A speed=14.7x    frame=20384 fps=353 q=-0.0 size=N/A time=00:14:10.18 bitrate=N/A speed=14.7x    frame=20562 fps=353 q=-0.0 size=N/A time=00:14:17.60 bitrate=N/A speed=14.7x    frame=20746 fps=353 q=-0.0 size=N/A time=00:14:25.28 bitrate=N/A speed=14.7x    frame=20925 fps=353 q=-0.0 size=N/A time=00:14:32.74 bitrate=N/A speed=14.7x    frame=21124 fps=353 q=-0.0 size=N/A time=00:14:41.04 bitrate=N/A speed=14.7x    frame=21315 fps=353 q=-0.0 size=N/A time=00:14:49.01 bitrate=N/A speed=14.7x    frame=21502 fps=353 q=-0.0 size=N/A time=00:14:56.81 bitrate=N/A speed=14.7x    frame=21694 fps=353 q=-0.0 size=N/A time=00:15:04.82 bitrate=N/A speed=14.7x    frame=21886 fps=354 q=-0.0 size=N/A time=00:15:12.82 bitrate=N/A speed=14.7x    frame=22062 fps=353 q=-0.0 size=N/A time=00:15:20.16 bitrate=N/A speed=14.7x    frame=22251 fps=354 q=-0.0 size=N/A time=00:15:28.05 bitrate=N/A speed=14.7x    frame=22437 fps=354 q=-0.0 size=N/A time=00:15:35.80 bitrate=N/A speed=14.7x    frame=22623 fps=354 q=-0.0 size=N/A time=00:15:43.56 bitrate=N/A speed=14.8x    frame=22811 fps=354 q=-0.0 size=N/A time=00:15:51.40 bitrate=N/A speed=14.8x    frame=22998 fps=354 q=-0.0 size=N/A time=00:15:59.20 bitrate=N/A speed=14.8x    frame=23186 fps=354 q=-0.0 size=N/A time=00:16:07.04 bitrate=N/A speed=14.8x    frame=23378 fps=354 q=-0.0 size=N/A time=00:16:15.05 bitrate=N/A speed=14.8x    frame=23570 fps=354 q=-0.0 size=N/A time=00:16:23.06 bitrate=N/A speed=14.8x    frame=23768 fps=354 q=-0.0 size=N/A time=00:16:31.32 bitrate=N/A speed=14.8x    frame=23953 fps=354 q=-0.0 size=N/A time=00:16:39.03 bitrate=N/A speed=14.8x    frame=24145 fps=355 q=-0.0 size=N/A time=00:16:47.04 bitrate=N/A speed=14.8x    frame=24326 fps=355 q=-0.0 size=N/A time=00:16:54.59 bitrate=N/A speed=14.8x    frame=24521 fps=355 q=-0.0 size=N/A time=00:17:02.73 bitrate=N/A speed=14.8x    frame=24716 fps=355 q=-0.0 size=N/A time=00:17:10.86 bitrate=N/A speed=14.8x    frame=24907 fps=355 q=-0.0 size=N/A time=00:17:18.82 bitrate=N/A speed=14.8x    frame=25095 fps=355 q=-0.0 size=N/A time=00:17:26.67 bitrate=N/A speed=14.8x    frame=25289 fps=355 q=-0.0 size=N/A time=00:17:34.76 bitrate=N/A speed=14.8x    frame=25474 fps=355 q=-0.0 size=N/A time=00:17:42.47 bitrate=N/A speed=14.8x    frame=25670 fps=355 q=-0.0 size=N/A time=00:17:50.65 bitrate=N/A speed=14.8x    frame=25854 fps=355 q=-0.0 size=N/A time=00:17:58.32 bitrate=N/A speed=14.8x    frame=26046 fps=356 q=-0.0 size=N/A time=00:18:06.33 bitrate=N/A speed=14.8x    frame=26237 fps=356 q=-0.0 size=N/A time=00:18:14.30 bitrate=N/A speed=14.8x    frame=26426 fps=356 q=-0.0 size=N/A time=00:18:22.18 bitrate=N/A speed=14.8x    frame=26613 fps=356 q=-0.0 size=N/A time=00:18:29.98 bitrate=N/A speed=14.8x    frame=26800 fps=356 q=-0.0 size=N/A time=00:18:37.78 bitrate=N/A speed=14.8x    frame=26977 fps=356 q=-0.0 size=N/A time=00:18:45.16 bitrate=N/A speed=14.8x    frame=27161 fps=356 q=-0.0 size=N/A time=00:18:52.84 bitrate=N/A speed=14.8x    frame=27342 fps=356 q=-0.0 size=N/A time=00:19:00.38 bitrate=N/A speed=14.8x    frame=27523 fps=356 q=-0.0 size=N/A time=00:19:07.93 bitrate=N/A speed=14.8x    frame=27715 fps=356 q=-0.0 size=N/A time=00:19:15.94 bitrate=N/A speed=14.8x    frame=27892 fps=356 q=-0.0 size=N/A time=00:19:23.32 bitrate=N/A speed=14.8x    frame=28076 fps=356 q=-0.0 size=N/A time=00:19:31.00 bitrate=N/A speed=14.8x    frame=28262 fps=356 q=-0.0 size=N/A time=00:19:38.76 bitrate=N/A speed=14.8x    frame=28446 fps=356 q=-0.0 size=N/A time=00:19:46.43 bitrate=N/A speed=14.8x    frame=28627 fps=356 q=-0.0 size=N/A time=00:19:53.98 bitrate=N/A speed=14.8x    frame=28807 fps=356 q=-0.0 size=N/A time=00:20:01.49 bitrate=N/A speed=14.8x    frame=28978 fps=356 q=-0.0 size=N/A time=00:20:08.62 bitrate=N/A speed=14.8x    frame=29147 fps=355 q=-0.0 size=N/A time=00:20:15.67 bitrate=N/A speed=14.8x    frame=29323 fps=355 q=-0.0 size=N/A time=00:20:23.01 bitrate=N/A speed=14.8x    frame=29496 fps=355 q=-0.0 size=N/A time=00:20:30.22 bitrate=N/A speed=14.8x    frame=29672 fps=355 q=-0.0 size=N/A time=00:20:37.56 bitrate=N/A speed=14.8x    frame=29852 fps=355 q=-0.0 size=N/A time=00:20:45.07 bitrate=N/A speed=14.8x    frame=30013 fps=355 q=-0.0 size=N/A time=00:20:51.79 bitrate=N/A speed=14.8x    frame=30194 fps=355 q=-0.0 size=N/A time=00:20:59.34 bitrate=N/A speed=14.8x    frame=30372 fps=355 q=-0.0 size=N/A time=00:21:06.76 bitrate=N/A speed=14.8x    frame=30566 fps=355 q=-0.0 size=N/A time=00:21:14.85 bitrate=N/A speed=14.8x    frame=30755 fps=355 q=-0.0 size=N/A time=00:21:22.73 bitrate=N/A speed=14.8x    frame=30941 fps=355 q=-0.0 size=N/A time=00:21:30.49 bitrate=N/A speed=14.8x    frame=31122 fps=355 q=-0.0 size=N/A time=00:21:38.04 bitrate=N/A speed=14.8x    frame=31314 fps=355 q=-0.0 size=N/A time=00:21:46.05 bitrate=N/A speed=14.8x    frame=31488 fps=355 q=-0.0 size=N/A time=00:21:53.31 bitrate=N/A speed=14.8x    frame=31679 fps=355 q=-0.0 size=N/A time=00:22:01.27 bitrate=N/A speed=14.8x    frame=31858 fps=355 q=-0.0 size=N/A time=00:22:08.74 bitrate=N/A speed=14.8x    frame=32038 fps=355 q=-0.0 size=N/A time=00:22:16.25 bitrate=N/A speed=14.8x    frame=32225 fps=355 q=-0.0 size=N/A time=00:22:24.05 bitrate=N/A speed=14.8x    frame=32408 fps=355 q=-0.0 size=N/A time=00:22:31.68 bitrate=N/A speed=14.8x    frame=32600 fps=355 q=-0.0 size=N/A time=00:22:39.69 bitrate=N/A speed=14.8x    frame=32750 fps=355 q=-0.0 size=N/A time=00:22:45.94 bitrate=N/A speed=14.8x    frame=32907 fps=354 q=-0.0 size=N/A time=00:22:52.49 bitrate=N/A speed=14.8x    frame=33090 fps=354 q=-0.0 size=N/A time=00:23:00.12 bitrate=N/A speed=14.8x    frame=33268 fps=354 q=-0.0 size=N/A time=00:23:07.55 bitrate=N/A speed=14.8x    frame=33439 fps=354 q=-0.0 size=N/A time=00:23:14.68 bitrate=N/A speed=14.8x    frame=33579 fps=354 q=-0.0 size=N/A time=00:23:20.52 bitrate=N/A speed=14.8x    frame=33736 fps=354 q=-0.0 size=N/A time=00:23:27.07 bitrate=N/A speed=14.7x    frame=33854 fps=353 q=-0.0 size=N/A time=00:23:31.99 bitrate=N/A speed=14.7x    frame=34001 fps=352 q=-0.0 size=N/A time=00:23:38.12 bitrate=N/A speed=14.7x    frame=34156 fps=352 q=-0.0 size=N/A time=00:23:44.58 bitrate=N/A speed=14.7x    frame=34312 fps=352 q=-0.0 size=N/A time=00:23:51.09 bitrate=N/A speed=14.7x    frame=34434 fps=351 q=-0.0 size=N/A time=00:23:56.18 bitrate=N/A speed=14.7x    frame=34611 fps=351 q=-0.0 size=N/A time=00:24:03.56 bitrate=N/A speed=14.7x    [Parsed_psnr_16 @ 000001abfa9fb940] PSNR y:48.757784 u:50.340524 v:50.385636 average:49.229865 min:37.744758 max:inf
[out#0/null @ 000001abf3c0dec0] video:14903KiB audio:271276KiB subtitle:0KiB other streams:0KiB global headers:0KiB muxing overhead: unknown
frame=34683 fps=351 q=-0.0 Lsize=N/A time=00:24:06.57 bitrate=N/A speed=14.7x    
